<svg xmlns="http://www.w3.org/2000/svg" xmlns:xlink="http://www.w3.org/1999/xlink" version="1.1" width="144"
  height="144" viewBox="0 0 48 48" xml:space="preserve">
  <g transform="matrix(0.77 0 0 0.77 24.19 24.06)">
    <path
      style="stroke: none; stroke-width: 1; stroke-dasharray: none; stroke-linecap: butt; stroke-dashoffset: 0; stroke-linejoin: miter; stroke-miterlimit: 4; fill: rgb(5,29,59); fill-rule: evenodd; opacity: 1;"
      transform=" translate(-115, -17.02)"
      d="M 88.7529 34.0493 H 141.247 C 143.311 34.0493 145 32.5706 145 30.7224 V 3.28582 C 145 1.47862 143.311 0 141.247 0 H 88.7529 C 86.6888 0 85 1.47862 85 3.28582 V 30.7635 C 85 32.5706 86.6888 34.0493 88.7529 34.0493 Z M 96.4376 24.3483 V 13.3508 H 94.1977 V 24.3003 H 92.6251 V 26.4134 H 98.7251 C 101.013 26.4134 102.728 25.8371 103.777 24.7325 C 104.825 23.628 105.349 21.8991 105.349 19.4499 V 14.6474 C 105.349 12.2462 104.825 10.4693 103.777 9.36475 C 102.728 8.26019 101.013 7.6839 98.7251 7.6839 H 92.6251 V 9.74894 H 94.1977 H 96.4376 H 98.3915 C 99.2017 9.74894 99.9166 9.84499 100.488 9.98906 C 101.108 10.1331 101.585 10.4213 101.966 10.8055 C 102.347 11.1897 102.633 11.7179 102.824 12.3423 C 103.014 13.0146 103.11 13.831 103.11 14.7915 V 19.3058 C 103.11 20.3143 103.014 21.1307 102.824 21.755 C 102.633 22.3793 102.347 22.9076 101.966 23.2918 C 101.585 23.676 101.06 23.9642 100.488 24.1082 C 99.9166 24.2523 99.2017 24.3483 98.3915 24.3483 H 96.4376 Z M 111.688 24.3484 H 120.886 V 26.4135 H 109.448 V 7.68399 H 120.695 V 9.79707 H 111.64 V 24.3484 H 111.688 Z M 120.552 15.9922 V 18.0573 H 114.023 V 15.9922 H 120.552 Z M 129.559 24.3484 L 126.509 13.1588 H 124.174 L 127.939 26.4135 H 132.228 L 137.47 7.68399 H 135.087 L 130.512 24.3484 H 129.559 Z M 122.601 7.68399 L 123.459 10.6615 H 125.794 L 124.984 7.68399 H 122.601 Z"
      stroke-linecap="round" />
  </g>
</svg>